<mxfile host="app.diagrams.net" modified="2023-10-20T21:59:23.294Z" agent="Mozilla/5.0 (Macintosh; Intel Mac OS X 10_15_7) AppleWebKit/537.36 (KHTML, like Gecko) Chrome/117.0.0.0 Safari/537.36" etag="3vhyXJRcymykzlRDf89x" version="22.0.6" type="github">
  <diagram id="y0Xd6numxhi9tPHDjwmG" name="Page-1">
    <mxGraphModel dx="1434" dy="822" grid="1" gridSize="10" guides="1" tooltips="1" connect="1" arrows="1" fold="1" page="1" pageScale="1" pageWidth="850" pageHeight="1100" math="0" shadow="0">
      <root>
        <mxCell id="0" />
        <mxCell id="1" parent="0" />
        <mxCell id="MNY0G93UUQZCKlCEBIov-1" value="UI" style="swimlane;whiteSpace=wrap;html=1;" parent="1" vertex="1">
          <mxGeometry x="40" y="50" width="270" height="2940" as="geometry" />
        </mxCell>
        <mxCell id="MNY0G93UUQZCKlCEBIov-5" value="Request to create account" style="rounded=1;whiteSpace=wrap;html=1;" parent="MNY0G93UUQZCKlCEBIov-1" vertex="1">
          <mxGeometry x="75" y="350" width="120" height="60" as="geometry" />
        </mxCell>
        <mxCell id="MNY0G93UUQZCKlCEBIov-10" value="Login" style="rounded=1;whiteSpace=wrap;html=1;" parent="MNY0G93UUQZCKlCEBIov-1" vertex="1">
          <mxGeometry x="75" y="550" width="120" height="60" as="geometry" />
        </mxCell>
        <mxCell id="MNY0G93UUQZCKlCEBIov-11" value="" style="shape=ellipse;fillColor=#000000;strokeColor=none;html=1;sketch=0;" parent="MNY0G93UUQZCKlCEBIov-1" vertex="1">
          <mxGeometry x="115" y="40" width="40" height="40" as="geometry" />
        </mxCell>
        <mxCell id="MNY0G93UUQZCKlCEBIov-103" style="edgeStyle=orthogonalEdgeStyle;rounded=0;orthogonalLoop=1;jettySize=auto;html=1;exitX=0.5;exitY=1;exitDx=0;exitDy=0;entryX=0.5;entryY=0;entryDx=0;entryDy=0;" parent="MNY0G93UUQZCKlCEBIov-1" source="MNY0G93UUQZCKlCEBIov-18" target="MNY0G93UUQZCKlCEBIov-10" edge="1">
          <mxGeometry relative="1" as="geometry" />
        </mxCell>
        <mxCell id="MNY0G93UUQZCKlCEBIov-18" value="Confirmation &lt;br&gt;Message" style="rounded=1;whiteSpace=wrap;html=1;" parent="MNY0G93UUQZCKlCEBIov-1" vertex="1">
          <mxGeometry x="75" y="450" width="120" height="60" as="geometry" />
        </mxCell>
        <mxCell id="MNY0G93UUQZCKlCEBIov-30" style="edgeStyle=orthogonalEdgeStyle;rounded=0;orthogonalLoop=1;jettySize=auto;html=1;entryX=0.5;entryY=1;entryDx=0;entryDy=0;" parent="MNY0G93UUQZCKlCEBIov-1" source="MNY0G93UUQZCKlCEBIov-29" target="MNY0G93UUQZCKlCEBIov-10" edge="1">
          <mxGeometry relative="1" as="geometry" />
        </mxCell>
        <mxCell id="MNY0G93UUQZCKlCEBIov-29" value="DIsplay Error Message" style="rounded=1;whiteSpace=wrap;html=1;" parent="MNY0G93UUQZCKlCEBIov-1" vertex="1">
          <mxGeometry x="75" y="670" width="120" height="60" as="geometry" />
        </mxCell>
        <mxCell id="MNY0G93UUQZCKlCEBIov-37" style="edgeStyle=orthogonalEdgeStyle;rounded=0;orthogonalLoop=1;jettySize=auto;html=1;" parent="MNY0G93UUQZCKlCEBIov-1" source="MNY0G93UUQZCKlCEBIov-33" target="MNY0G93UUQZCKlCEBIov-36" edge="1">
          <mxGeometry relative="1" as="geometry" />
        </mxCell>
        <mxCell id="MNY0G93UUQZCKlCEBIov-33" value="Display Account " style="rounded=1;whiteSpace=wrap;html=1;" parent="MNY0G93UUQZCKlCEBIov-1" vertex="1">
          <mxGeometry x="80" y="770" width="120" height="60" as="geometry" />
        </mxCell>
        <mxCell id="MNY0G93UUQZCKlCEBIov-36" value="Request to check nearest ER&lt;br&gt;capacity" style="rounded=1;whiteSpace=wrap;html=1;" parent="MNY0G93UUQZCKlCEBIov-1" vertex="1">
          <mxGeometry x="80" y="910" width="120" height="60" as="geometry" />
        </mxCell>
        <mxCell id="MNY0G93UUQZCKlCEBIov-52" style="edgeStyle=orthogonalEdgeStyle;rounded=0;orthogonalLoop=1;jettySize=auto;html=1;" parent="MNY0G93UUQZCKlCEBIov-1" source="MNY0G93UUQZCKlCEBIov-44" target="MNY0G93UUQZCKlCEBIov-48" edge="1">
          <mxGeometry relative="1" as="geometry" />
        </mxCell>
        <mxCell id="MNY0G93UUQZCKlCEBIov-44" value="Display ER capacity" style="rounded=1;whiteSpace=wrap;html=1;" parent="MNY0G93UUQZCKlCEBIov-1" vertex="1">
          <mxGeometry x="80" y="1010" width="120" height="60" as="geometry" />
        </mxCell>
        <mxCell id="MNY0G93UUQZCKlCEBIov-48" value="Request&lt;br&gt;for Triage&lt;span style=&quot;white-space: pre;&quot;&gt;&#x9;&lt;/span&gt;" style="rounded=1;whiteSpace=wrap;html=1;" parent="MNY0G93UUQZCKlCEBIov-1" vertex="1">
          <mxGeometry x="80" y="1110" width="120" height="60" as="geometry" />
        </mxCell>
        <mxCell id="MNY0G93UUQZCKlCEBIov-79" value="Notify User to book for ER" style="rounded=1;whiteSpace=wrap;html=1;" parent="MNY0G93UUQZCKlCEBIov-1" vertex="1">
          <mxGeometry x="55" y="1620" width="120" height="60" as="geometry" />
        </mxCell>
        <mxCell id="MNY0G93UUQZCKlCEBIov-81" value="Book ER Appointment at nearest location" style="rounded=1;whiteSpace=wrap;html=1;" parent="MNY0G93UUQZCKlCEBIov-1" vertex="1">
          <mxGeometry x="55" y="1760" width="120" height="60" as="geometry" />
        </mxCell>
        <mxCell id="MNY0G93UUQZCKlCEBIov-84" value="" style="endArrow=classic;html=1;rounded=0;exitX=0.5;exitY=1;exitDx=0;exitDy=0;entryX=0.5;entryY=0;entryDx=0;entryDy=0;" parent="MNY0G93UUQZCKlCEBIov-1" source="MNY0G93UUQZCKlCEBIov-79" target="MNY0G93UUQZCKlCEBIov-81" edge="1">
          <mxGeometry width="50" height="50" relative="1" as="geometry">
            <mxPoint x="540" y="1660" as="sourcePoint" />
            <mxPoint x="590" y="1610" as="targetPoint" />
          </mxGeometry>
        </mxCell>
        <mxCell id="MNY0G93UUQZCKlCEBIov-91" value="Notify user of no Available Spots" style="rounded=1;whiteSpace=wrap;html=1;" parent="MNY0G93UUQZCKlCEBIov-1" vertex="1">
          <mxGeometry x="55" y="1870" width="120" height="60" as="geometry" />
        </mxCell>
        <mxCell id="MNY0G93UUQZCKlCEBIov-92" value="" style="endArrow=classic;html=1;rounded=0;exitX=0.5;exitY=0;exitDx=0;exitDy=0;entryX=0.5;entryY=1;entryDx=0;entryDy=0;" parent="MNY0G93UUQZCKlCEBIov-1" source="MNY0G93UUQZCKlCEBIov-91" target="MNY0G93UUQZCKlCEBIov-81" edge="1">
          <mxGeometry width="50" height="50" relative="1" as="geometry">
            <mxPoint x="540" y="1730" as="sourcePoint" />
            <mxPoint x="590" y="1680" as="targetPoint" />
          </mxGeometry>
        </mxCell>
        <mxCell id="MNY0G93UUQZCKlCEBIov-93" value="&lt;div&gt;Change to next&lt;/div&gt;&lt;div&gt;&amp;nbsp;Nearest Location&lt;br&gt;&lt;/div&gt;" style="edgeLabel;html=1;align=center;verticalAlign=middle;resizable=0;points=[];" parent="MNY0G93UUQZCKlCEBIov-92" vertex="1" connectable="0">
          <mxGeometry x="0.2238" y="-1" relative="1" as="geometry">
            <mxPoint as="offset" />
          </mxGeometry>
        </mxCell>
        <mxCell id="MNY0G93UUQZCKlCEBIov-94" value="Load login page" style="rounded=1;whiteSpace=wrap;html=1;" parent="MNY0G93UUQZCKlCEBIov-1" vertex="1">
          <mxGeometry x="75" y="100" width="120" height="60" as="geometry" />
        </mxCell>
        <mxCell id="MNY0G93UUQZCKlCEBIov-98" style="edgeStyle=orthogonalEdgeStyle;rounded=0;orthogonalLoop=1;jettySize=auto;html=1;exitX=0.5;exitY=1;exitDx=0;exitDy=0;entryX=0.5;entryY=0;entryDx=0;entryDy=0;" parent="MNY0G93UUQZCKlCEBIov-1" source="MNY0G93UUQZCKlCEBIov-95" target="MNY0G93UUQZCKlCEBIov-5" edge="1">
          <mxGeometry relative="1" as="geometry" />
        </mxCell>
        <mxCell id="MNY0G93UUQZCKlCEBIov-104" value="Choose &quot;register&quot;" style="edgeLabel;html=1;align=center;verticalAlign=middle;resizable=0;points=[];" parent="MNY0G93UUQZCKlCEBIov-98" vertex="1" connectable="0">
          <mxGeometry x="-0.3" y="-4" relative="1" as="geometry">
            <mxPoint as="offset" />
          </mxGeometry>
        </mxCell>
        <mxCell id="MNY0G93UUQZCKlCEBIov-102" style="edgeStyle=orthogonalEdgeStyle;rounded=0;orthogonalLoop=1;jettySize=auto;html=1;exitX=0;exitY=0.5;exitDx=0;exitDy=0;entryX=0;entryY=0.5;entryDx=0;entryDy=0;" parent="MNY0G93UUQZCKlCEBIov-1" source="MNY0G93UUQZCKlCEBIov-95" target="MNY0G93UUQZCKlCEBIov-10" edge="1">
          <mxGeometry relative="1" as="geometry">
            <Array as="points">
              <mxPoint x="10" y="220" />
              <mxPoint x="10" y="580" />
            </Array>
          </mxGeometry>
        </mxCell>
        <mxCell id="MNY0G93UUQZCKlCEBIov-105" value="Continue" style="edgeLabel;html=1;align=center;verticalAlign=middle;resizable=0;points=[];" parent="MNY0G93UUQZCKlCEBIov-102" vertex="1" connectable="0">
          <mxGeometry x="-0.8074" relative="1" as="geometry">
            <mxPoint as="offset" />
          </mxGeometry>
        </mxCell>
        <mxCell id="MNY0G93UUQZCKlCEBIov-95" value="" style="rhombus;whiteSpace=wrap;html=1;" parent="MNY0G93UUQZCKlCEBIov-1" vertex="1">
          <mxGeometry x="105" y="190" width="60" height="60" as="geometry" />
        </mxCell>
        <mxCell id="MNY0G93UUQZCKlCEBIov-96" value="" style="endArrow=classic;html=1;rounded=0;exitX=0.5;exitY=1;exitDx=0;exitDy=0;entryX=0.5;entryY=0;entryDx=0;entryDy=0;" parent="MNY0G93UUQZCKlCEBIov-1" source="MNY0G93UUQZCKlCEBIov-94" target="MNY0G93UUQZCKlCEBIov-95" edge="1">
          <mxGeometry width="50" height="50" relative="1" as="geometry">
            <mxPoint x="540" y="360" as="sourcePoint" />
            <mxPoint x="590" y="310" as="targetPoint" />
          </mxGeometry>
        </mxCell>
        <mxCell id="MNY0G93UUQZCKlCEBIov-97" value="" style="endArrow=classic;html=1;rounded=0;exitX=0.5;exitY=1;exitDx=0;exitDy=0;entryX=0.5;entryY=0;entryDx=0;entryDy=0;" parent="MNY0G93UUQZCKlCEBIov-1" source="MNY0G93UUQZCKlCEBIov-11" target="MNY0G93UUQZCKlCEBIov-94" edge="1">
          <mxGeometry width="50" height="50" relative="1" as="geometry">
            <mxPoint x="540" y="360" as="sourcePoint" />
            <mxPoint x="590" y="310" as="targetPoint" />
          </mxGeometry>
        </mxCell>
        <mxCell id="MNY0G93UUQZCKlCEBIov-117" style="edgeStyle=orthogonalEdgeStyle;rounded=0;orthogonalLoop=1;jettySize=auto;html=1;exitX=0.5;exitY=1;exitDx=0;exitDy=0;entryX=0.5;entryY=0;entryDx=0;entryDy=0;" parent="MNY0G93UUQZCKlCEBIov-1" source="MNY0G93UUQZCKlCEBIov-113" target="MNY0G93UUQZCKlCEBIov-116" edge="1">
          <mxGeometry relative="1" as="geometry" />
        </mxCell>
        <mxCell id="MNY0G93UUQZCKlCEBIov-113" value="Notify user of Available Spot" style="rounded=1;whiteSpace=wrap;html=1;" parent="MNY0G93UUQZCKlCEBIov-1" vertex="1">
          <mxGeometry x="55" y="2000" width="120" height="60" as="geometry" />
        </mxCell>
        <mxCell id="MNY0G93UUQZCKlCEBIov-119" style="edgeStyle=orthogonalEdgeStyle;rounded=0;orthogonalLoop=1;jettySize=auto;html=1;exitX=0.5;exitY=1;exitDx=0;exitDy=0;entryX=0.5;entryY=0;entryDx=0;entryDy=0;" parent="MNY0G93UUQZCKlCEBIov-1" source="MNY0G93UUQZCKlCEBIov-116" target="MNY0G93UUQZCKlCEBIov-118" edge="1">
          <mxGeometry relative="1" as="geometry" />
        </mxCell>
        <mxCell id="MNY0G93UUQZCKlCEBIov-116" value="Register for available spot" style="rounded=1;whiteSpace=wrap;html=1;" parent="MNY0G93UUQZCKlCEBIov-1" vertex="1">
          <mxGeometry x="55" y="2090" width="120" height="60" as="geometry" />
        </mxCell>
        <mxCell id="MNY0G93UUQZCKlCEBIov-118" value="" style="ellipse;html=1;shape=endState;fillColor=#000000;strokeColor=#ff0000;" parent="MNY0G93UUQZCKlCEBIov-1" vertex="1">
          <mxGeometry x="100" y="2200" width="30" height="30" as="geometry" />
        </mxCell>
        <mxCell id="C8Zunma8ayT8bwuVkPhB-6" value="Calling Nurses" style="rounded=1;whiteSpace=wrap;html=1;" parent="MNY0G93UUQZCKlCEBIov-1" vertex="1">
          <mxGeometry x="70" y="2320" width="120" height="60" as="geometry" />
        </mxCell>
        <mxCell id="RF6s3ryaV3bNUwfVbSeh-10" style="edgeStyle=orthogonalEdgeStyle;rounded=0;orthogonalLoop=1;jettySize=auto;html=1;" edge="1" parent="MNY0G93UUQZCKlCEBIov-1" source="C8Zunma8ayT8bwuVkPhB-7">
          <mxGeometry relative="1" as="geometry">
            <mxPoint x="20" y="2430" as="targetPoint" />
          </mxGeometry>
        </mxCell>
        <mxCell id="C8Zunma8ayT8bwuVkPhB-7" value="Visiting a Clinic" style="rounded=1;whiteSpace=wrap;html=1;" parent="MNY0G93UUQZCKlCEBIov-1" vertex="1">
          <mxGeometry x="70" y="2400" width="120" height="60" as="geometry" />
        </mxCell>
        <mxCell id="RF6s3ryaV3bNUwfVbSeh-9" style="edgeStyle=orthogonalEdgeStyle;rounded=0;orthogonalLoop=1;jettySize=auto;html=1;" edge="1" parent="MNY0G93UUQZCKlCEBIov-1" source="C8Zunma8ayT8bwuVkPhB-8">
          <mxGeometry relative="1" as="geometry">
            <mxPoint x="20" y="2540" as="targetPoint" />
          </mxGeometry>
        </mxCell>
        <mxCell id="C8Zunma8ayT8bwuVkPhB-8" value="Visiting a pharmacy" style="rounded=1;whiteSpace=wrap;html=1;" parent="MNY0G93UUQZCKlCEBIov-1" vertex="1">
          <mxGeometry x="70" y="2510" width="120" height="60" as="geometry" />
        </mxCell>
        <mxCell id="RF6s3ryaV3bNUwfVbSeh-5" value="Request for further&amp;nbsp;&lt;br&gt;information on the recommended action" style="rounded=1;whiteSpace=wrap;html=1;" vertex="1" parent="MNY0G93UUQZCKlCEBIov-1">
          <mxGeometry x="70" y="2620" width="120" height="60" as="geometry" />
        </mxCell>
        <mxCell id="RF6s3ryaV3bNUwfVbSeh-7" value="" style="endArrow=classic;html=1;rounded=0;exitX=0;exitY=0.5;exitDx=0;exitDy=0;entryX=0;entryY=0.5;entryDx=0;entryDy=0;" edge="1" parent="MNY0G93UUQZCKlCEBIov-1" source="C8Zunma8ayT8bwuVkPhB-6" target="RF6s3ryaV3bNUwfVbSeh-5">
          <mxGeometry width="50" height="50" relative="1" as="geometry">
            <mxPoint x="40" y="2610" as="sourcePoint" />
            <mxPoint x="30" y="2350" as="targetPoint" />
            <Array as="points">
              <mxPoint x="20" y="2350" />
              <mxPoint x="20" y="2650" />
            </Array>
          </mxGeometry>
        </mxCell>
        <mxCell id="RF6s3ryaV3bNUwfVbSeh-17" value="Display available options for recommended method" style="rounded=1;whiteSpace=wrap;html=1;" vertex="1" parent="MNY0G93UUQZCKlCEBIov-1">
          <mxGeometry x="70" y="2730" width="120" height="60" as="geometry" />
        </mxCell>
        <mxCell id="RF6s3ryaV3bNUwfVbSeh-20" value="" style="ellipse;html=1;shape=endState;fillColor=#000000;strokeColor=#ff0000;" vertex="1" parent="MNY0G93UUQZCKlCEBIov-1">
          <mxGeometry x="115" y="2870" width="30" height="30" as="geometry" />
        </mxCell>
        <mxCell id="RF6s3ryaV3bNUwfVbSeh-22" value="" style="endArrow=classic;html=1;rounded=0;entryX=0.5;entryY=0;entryDx=0;entryDy=0;exitX=0.5;exitY=1;exitDx=0;exitDy=0;" edge="1" parent="MNY0G93UUQZCKlCEBIov-1" source="RF6s3ryaV3bNUwfVbSeh-17" target="RF6s3ryaV3bNUwfVbSeh-20">
          <mxGeometry width="50" height="50" relative="1" as="geometry">
            <mxPoint x="129.5" y="2800" as="sourcePoint" />
            <mxPoint x="129.5" y="2850" as="targetPoint" />
          </mxGeometry>
        </mxCell>
        <mxCell id="MNY0G93UUQZCKlCEBIov-3" value="ACCOUNT" style="swimlane;whiteSpace=wrap;html=1;startSize=23;" parent="1" vertex="1">
          <mxGeometry x="310" y="50" width="230" height="2940" as="geometry" />
        </mxCell>
        <mxCell id="MNY0G93UUQZCKlCEBIov-9" value="Account created" style="rounded=1;whiteSpace=wrap;html=1;" parent="MNY0G93UUQZCKlCEBIov-3" vertex="1">
          <mxGeometry x="70" y="350" width="120" height="60" as="geometry" />
        </mxCell>
        <mxCell id="MNY0G93UUQZCKlCEBIov-26" style="edgeStyle=orthogonalEdgeStyle;rounded=0;orthogonalLoop=1;jettySize=auto;html=1;entryX=0.5;entryY=0;entryDx=0;entryDy=0;" parent="MNY0G93UUQZCKlCEBIov-3" source="MNY0G93UUQZCKlCEBIov-24" target="MNY0G93UUQZCKlCEBIov-25" edge="1">
          <mxGeometry relative="1" as="geometry" />
        </mxCell>
        <mxCell id="MNY0G93UUQZCKlCEBIov-24" value="Check Credential" style="rounded=1;whiteSpace=wrap;html=1;" parent="MNY0G93UUQZCKlCEBIov-3" vertex="1">
          <mxGeometry x="70" y="550" width="120" height="60" as="geometry" />
        </mxCell>
        <mxCell id="MNY0G93UUQZCKlCEBIov-31" style="edgeStyle=orthogonalEdgeStyle;rounded=0;orthogonalLoop=1;jettySize=auto;html=1;exitX=0.5;exitY=1;exitDx=0;exitDy=0;" parent="MNY0G93UUQZCKlCEBIov-3" source="MNY0G93UUQZCKlCEBIov-25" edge="1">
          <mxGeometry relative="1" as="geometry">
            <mxPoint x="130" y="770" as="targetPoint" />
          </mxGeometry>
        </mxCell>
        <mxCell id="MNY0G93UUQZCKlCEBIov-68" value="Yes" style="edgeLabel;html=1;align=center;verticalAlign=middle;resizable=0;points=[];" parent="MNY0G93UUQZCKlCEBIov-31" vertex="1" connectable="0">
          <mxGeometry x="-0.4" relative="1" as="geometry">
            <mxPoint as="offset" />
          </mxGeometry>
        </mxCell>
        <mxCell id="MNY0G93UUQZCKlCEBIov-25" value="Valid &lt;br&gt;Credential?" style="rhombus;whiteSpace=wrap;html=1;" parent="MNY0G93UUQZCKlCEBIov-3" vertex="1">
          <mxGeometry x="90" y="660" width="80" height="80" as="geometry" />
        </mxCell>
        <mxCell id="MNY0G93UUQZCKlCEBIov-32" value="Logged In" style="rounded=1;whiteSpace=wrap;html=1;" parent="MNY0G93UUQZCKlCEBIov-3" vertex="1">
          <mxGeometry x="70" y="770" width="120" height="60" as="geometry" />
        </mxCell>
        <mxCell id="MNY0G93UUQZCKlCEBIov-38" value="Request for relevant &lt;br&gt;data from Health Database" style="rounded=1;whiteSpace=wrap;html=1;" parent="MNY0G93UUQZCKlCEBIov-3" vertex="1">
          <mxGeometry x="70" y="910" width="120" height="60" as="geometry" />
        </mxCell>
        <mxCell id="MNY0G93UUQZCKlCEBIov-55" value="Request for personal&lt;br&gt;health info for triage" style="rounded=1;whiteSpace=wrap;html=1;" parent="MNY0G93UUQZCKlCEBIov-3" vertex="1">
          <mxGeometry x="70" y="1110" width="130" height="60" as="geometry" />
        </mxCell>
        <mxCell id="MNY0G93UUQZCKlCEBIov-51" value="Initiate Triage" style="rounded=1;whiteSpace=wrap;html=1;" parent="MNY0G93UUQZCKlCEBIov-3" vertex="1">
          <mxGeometry x="70" y="1250" width="120" height="60" as="geometry" />
        </mxCell>
        <mxCell id="RF6s3ryaV3bNUwfVbSeh-11" value="Request for relevant&lt;br style=&quot;border-color: var(--border-color);&quot;&gt;data from Health Database" style="rounded=1;whiteSpace=wrap;html=1;" vertex="1" parent="MNY0G93UUQZCKlCEBIov-3">
          <mxGeometry x="70" y="2620" width="120" height="60" as="geometry" />
        </mxCell>
        <mxCell id="MNY0G93UUQZCKlCEBIov-4" value="HEALTH SERVICE DATABASE" style="swimlane;whiteSpace=wrap;html=1;" parent="1" vertex="1">
          <mxGeometry x="770" y="50" width="290" height="2940" as="geometry" />
        </mxCell>
        <mxCell id="MNY0G93UUQZCKlCEBIov-42" value="Check for ER capacity" style="rounded=1;whiteSpace=wrap;html=1;" parent="MNY0G93UUQZCKlCEBIov-4" vertex="1">
          <mxGeometry x="55" y="910" width="120" height="60" as="geometry" />
        </mxCell>
        <mxCell id="MNY0G93UUQZCKlCEBIov-85" value="Request for relevant &lt;br&gt;data from Health Database" style="rounded=1;whiteSpace=wrap;html=1;" parent="MNY0G93UUQZCKlCEBIov-4" vertex="1">
          <mxGeometry x="-390" y="1760" width="120" height="60" as="geometry" />
        </mxCell>
        <mxCell id="MNY0G93UUQZCKlCEBIov-86" value="Check for ER capacity" style="rounded=1;whiteSpace=wrap;html=1;" parent="MNY0G93UUQZCKlCEBIov-4" vertex="1">
          <mxGeometry x="85" y="1760" width="120" height="60" as="geometry" />
        </mxCell>
        <mxCell id="MNY0G93UUQZCKlCEBIov-88" value="" style="endArrow=classic;html=1;rounded=0;exitX=1;exitY=0.5;exitDx=0;exitDy=0;entryX=0;entryY=0.5;entryDx=0;entryDy=0;" parent="MNY0G93UUQZCKlCEBIov-4" source="MNY0G93UUQZCKlCEBIov-85" target="MNY0G93UUQZCKlCEBIov-86" edge="1">
          <mxGeometry width="50" height="50" relative="1" as="geometry">
            <mxPoint x="-150" y="1740" as="sourcePoint" />
            <mxPoint x="-100" y="1690" as="targetPoint" />
          </mxGeometry>
        </mxCell>
        <mxCell id="MNY0G93UUQZCKlCEBIov-89" value="Is spot available?" style="rhombus;whiteSpace=wrap;html=1;" parent="MNY0G93UUQZCKlCEBIov-4" vertex="1">
          <mxGeometry x="108.75" y="1860" width="72.5" height="80" as="geometry" />
        </mxCell>
        <mxCell id="MNY0G93UUQZCKlCEBIov-90" value="" style="endArrow=classic;html=1;rounded=0;entryX=0.5;entryY=0;entryDx=0;entryDy=0;exitX=0.5;exitY=1;exitDx=0;exitDy=0;" parent="MNY0G93UUQZCKlCEBIov-4" source="MNY0G93UUQZCKlCEBIov-86" target="MNY0G93UUQZCKlCEBIov-89" edge="1">
          <mxGeometry width="50" height="50" relative="1" as="geometry">
            <mxPoint x="-75" y="1740" as="sourcePoint" />
            <mxPoint x="-25" y="1690" as="targetPoint" />
          </mxGeometry>
        </mxCell>
        <mxCell id="RF6s3ryaV3bNUwfVbSeh-2" value="" style="endArrow=classic;html=1;rounded=0;entryX=1;entryY=0.5;entryDx=0;entryDy=0;" edge="1" parent="MNY0G93UUQZCKlCEBIov-4" target="C8Zunma8ayT8bwuVkPhB-7">
          <mxGeometry width="50" height="50" relative="1" as="geometry">
            <mxPoint x="-130" y="2430" as="sourcePoint" />
            <mxPoint x="-30" y="2500" as="targetPoint" />
          </mxGeometry>
        </mxCell>
        <mxCell id="RF6s3ryaV3bNUwfVbSeh-6" value="Check and return requested information" style="rounded=1;whiteSpace=wrap;html=1;" vertex="1" parent="MNY0G93UUQZCKlCEBIov-4">
          <mxGeometry x="70" y="2620" width="120" height="60" as="geometry" />
        </mxCell>
        <mxCell id="MNY0G93UUQZCKlCEBIov-16" style="edgeStyle=orthogonalEdgeStyle;rounded=0;orthogonalLoop=1;jettySize=auto;html=1;entryX=0;entryY=0.5;entryDx=0;entryDy=0;" parent="1" source="MNY0G93UUQZCKlCEBIov-5" target="MNY0G93UUQZCKlCEBIov-9" edge="1">
          <mxGeometry relative="1" as="geometry" />
        </mxCell>
        <mxCell id="MNY0G93UUQZCKlCEBIov-19" style="edgeStyle=orthogonalEdgeStyle;rounded=0;orthogonalLoop=1;jettySize=auto;html=1;entryX=1;entryY=0.5;entryDx=0;entryDy=0;exitX=0.5;exitY=1;exitDx=0;exitDy=0;" parent="1" source="MNY0G93UUQZCKlCEBIov-9" target="MNY0G93UUQZCKlCEBIov-18" edge="1">
          <mxGeometry relative="1" as="geometry">
            <mxPoint x="475" y="510" as="sourcePoint" />
            <mxPoint x="350" y="600" as="targetPoint" />
          </mxGeometry>
        </mxCell>
        <mxCell id="MNY0G93UUQZCKlCEBIov-22" value="" style="endArrow=classic;html=1;rounded=0;exitX=1;exitY=0.5;exitDx=0;exitDy=0;entryX=0;entryY=0.5;entryDx=0;entryDy=0;" parent="1" source="MNY0G93UUQZCKlCEBIov-10" target="MNY0G93UUQZCKlCEBIov-24" edge="1">
          <mxGeometry width="50" height="50" relative="1" as="geometry">
            <mxPoint x="410" y="610" as="sourcePoint" />
            <mxPoint x="370" y="630" as="targetPoint" />
          </mxGeometry>
        </mxCell>
        <mxCell id="MNY0G93UUQZCKlCEBIov-23" value="User Credential" style="edgeLabel;html=1;align=center;verticalAlign=middle;resizable=0;points=[];" parent="MNY0G93UUQZCKlCEBIov-22" vertex="1" connectable="0">
          <mxGeometry x="-0.4667" relative="1" as="geometry">
            <mxPoint x="30" as="offset" />
          </mxGeometry>
        </mxCell>
        <mxCell id="MNY0G93UUQZCKlCEBIov-27" style="edgeStyle=orthogonalEdgeStyle;rounded=0;orthogonalLoop=1;jettySize=auto;html=1;" parent="1" source="MNY0G93UUQZCKlCEBIov-25" target="MNY0G93UUQZCKlCEBIov-29" edge="1">
          <mxGeometry relative="1" as="geometry">
            <mxPoint x="330" y="750" as="targetPoint" />
          </mxGeometry>
        </mxCell>
        <mxCell id="MNY0G93UUQZCKlCEBIov-28" value="No" style="edgeLabel;html=1;align=center;verticalAlign=middle;resizable=0;points=[];" parent="MNY0G93UUQZCKlCEBIov-27" vertex="1" connectable="0">
          <mxGeometry x="-0.6133" y="3" relative="1" as="geometry">
            <mxPoint as="offset" />
          </mxGeometry>
        </mxCell>
        <mxCell id="MNY0G93UUQZCKlCEBIov-34" style="edgeStyle=orthogonalEdgeStyle;rounded=0;orthogonalLoop=1;jettySize=auto;html=1;exitX=0;exitY=0.5;exitDx=0;exitDy=0;entryX=1;entryY=0.5;entryDx=0;entryDy=0;" parent="1" source="MNY0G93UUQZCKlCEBIov-32" target="MNY0G93UUQZCKlCEBIov-33" edge="1">
          <mxGeometry relative="1" as="geometry" />
        </mxCell>
        <mxCell id="MNY0G93UUQZCKlCEBIov-39" style="edgeStyle=orthogonalEdgeStyle;rounded=0;orthogonalLoop=1;jettySize=auto;html=1;entryX=0;entryY=0.5;entryDx=0;entryDy=0;" parent="1" source="MNY0G93UUQZCKlCEBIov-36" target="MNY0G93UUQZCKlCEBIov-38" edge="1">
          <mxGeometry relative="1" as="geometry" />
        </mxCell>
        <mxCell id="MNY0G93UUQZCKlCEBIov-40" value="Text" style="edgeLabel;html=1;align=center;verticalAlign=middle;resizable=0;points=[];" parent="MNY0G93UUQZCKlCEBIov-39" vertex="1" connectable="0">
          <mxGeometry x="-0.216" y="-5" relative="1" as="geometry">
            <mxPoint x="6" y="-5" as="offset" />
          </mxGeometry>
        </mxCell>
        <mxCell id="MNY0G93UUQZCKlCEBIov-41" value="User Input &lt;br&gt;for the ER location" style="edgeLabel;html=1;align=center;verticalAlign=middle;resizable=0;points=[];" parent="MNY0G93UUQZCKlCEBIov-39" vertex="1" connectable="0">
          <mxGeometry x="-0.104" y="1" relative="1" as="geometry">
            <mxPoint as="offset" />
          </mxGeometry>
        </mxCell>
        <mxCell id="MNY0G93UUQZCKlCEBIov-43" value="" style="endArrow=classic;html=1;rounded=0;exitX=1;exitY=0.5;exitDx=0;exitDy=0;entryX=0;entryY=0.5;entryDx=0;entryDy=0;" parent="1" source="MNY0G93UUQZCKlCEBIov-38" target="MNY0G93UUQZCKlCEBIov-42" edge="1">
          <mxGeometry width="50" height="50" relative="1" as="geometry">
            <mxPoint x="550" y="980" as="sourcePoint" />
            <mxPoint x="600" y="930" as="targetPoint" />
          </mxGeometry>
        </mxCell>
        <mxCell id="MNY0G93UUQZCKlCEBIov-46" value="" style="endArrow=classic;html=1;rounded=0;entryX=1;entryY=0.5;entryDx=0;entryDy=0;exitX=0.5;exitY=1;exitDx=0;exitDy=0;" parent="1" source="MNY0G93UUQZCKlCEBIov-42" target="MNY0G93UUQZCKlCEBIov-44" edge="1">
          <mxGeometry width="50" height="50" relative="1" as="geometry">
            <mxPoint x="550" y="1100" as="sourcePoint" />
            <mxPoint x="600" y="1050" as="targetPoint" />
            <Array as="points">
              <mxPoint x="885" y="1090" />
            </Array>
          </mxGeometry>
        </mxCell>
        <mxCell id="MNY0G93UUQZCKlCEBIov-49" value="Triage" style="swimlane;whiteSpace=wrap;html=1;" parent="1" vertex="1">
          <mxGeometry x="540" y="50" width="230" height="2940" as="geometry" />
        </mxCell>
        <mxCell id="MNY0G93UUQZCKlCEBIov-64" value="Assess User&#39;s SItuation" style="rounded=1;whiteSpace=wrap;html=1;" parent="MNY0G93UUQZCKlCEBIov-49" vertex="1">
          <mxGeometry x="55" y="1250" width="120" height="60" as="geometry" />
        </mxCell>
        <mxCell id="MNY0G93UUQZCKlCEBIov-112" style="edgeStyle=orthogonalEdgeStyle;rounded=0;orthogonalLoop=1;jettySize=auto;html=1;exitX=0.5;exitY=1;exitDx=0;exitDy=0;entryX=0.5;entryY=0;entryDx=0;entryDy=0;" parent="MNY0G93UUQZCKlCEBIov-49" source="MNY0G93UUQZCKlCEBIov-74" target="MNY0G93UUQZCKlCEBIov-77" edge="1">
          <mxGeometry relative="1" as="geometry" />
        </mxCell>
        <mxCell id="MNY0G93UUQZCKlCEBIov-74" value="Provide recommendation" style="rounded=1;whiteSpace=wrap;html=1;" parent="MNY0G93UUQZCKlCEBIov-49" vertex="1">
          <mxGeometry x="55" y="1510" width="120" height="60" as="geometry" />
        </mxCell>
        <mxCell id="MNY0G93UUQZCKlCEBIov-77" value="ER Needed?" style="rhombus;whiteSpace=wrap;html=1;" parent="MNY0G93UUQZCKlCEBIov-49" vertex="1">
          <mxGeometry x="75" y="1610" width="80" height="80" as="geometry" />
        </mxCell>
        <mxCell id="C8Zunma8ayT8bwuVkPhB-5" value="Other &lt;br&gt;recommendations?" style="rhombus;whiteSpace=wrap;html=1;" parent="MNY0G93UUQZCKlCEBIov-49" vertex="1">
          <mxGeometry x="40" y="2150" width="120" height="130" as="geometry" />
        </mxCell>
        <mxCell id="C8Zunma8ayT8bwuVkPhB-1" value="" style="endArrow=classic;html=1;rounded=0;exitX=1;exitY=0.5;exitDx=0;exitDy=0;entryX=1;entryY=0.5;entryDx=0;entryDy=0;" parent="MNY0G93UUQZCKlCEBIov-49" source="MNY0G93UUQZCKlCEBIov-77" target="C8Zunma8ayT8bwuVkPhB-5" edge="1">
          <mxGeometry width="50" height="50" relative="1" as="geometry">
            <mxPoint x="-60" y="1880" as="sourcePoint" />
            <mxPoint x="-325" y="2340" as="targetPoint" />
            <Array as="points">
              <mxPoint x="500" y="1650" />
              <mxPoint x="500" y="2215" />
            </Array>
          </mxGeometry>
        </mxCell>
        <mxCell id="MNY0G93UUQZCKlCEBIov-56" value="PERSONAL DATABASE" style="swimlane;whiteSpace=wrap;html=1;" parent="1" vertex="1">
          <mxGeometry x="1060" y="50" width="230" height="2940" as="geometry" />
        </mxCell>
        <mxCell id="MNY0G93UUQZCKlCEBIov-57" value="Retrieve User Health Data" style="rounded=1;whiteSpace=wrap;html=1;" parent="MNY0G93UUQZCKlCEBIov-56" vertex="1">
          <mxGeometry x="55" y="1110" width="120" height="60" as="geometry" />
        </mxCell>
        <mxCell id="MNY0G93UUQZCKlCEBIov-75" value="save recent triage" style="rounded=1;whiteSpace=wrap;html=1;" parent="MNY0G93UUQZCKlCEBIov-56" vertex="1">
          <mxGeometry x="55" y="1250" width="120" height="60" as="geometry" />
        </mxCell>
        <mxCell id="MNY0G93UUQZCKlCEBIov-58" value="" style="endArrow=classic;html=1;rounded=0;exitX=1;exitY=0.5;exitDx=0;exitDy=0;entryX=0;entryY=0.5;entryDx=0;entryDy=0;" parent="1" source="MNY0G93UUQZCKlCEBIov-48" target="MNY0G93UUQZCKlCEBIov-55" edge="1">
          <mxGeometry width="50" height="50" relative="1" as="geometry">
            <mxPoint x="680" y="1080" as="sourcePoint" />
            <mxPoint x="730" y="1030" as="targetPoint" />
          </mxGeometry>
        </mxCell>
        <mxCell id="MNY0G93UUQZCKlCEBIov-59" value="updated user&lt;br&gt;health info" style="edgeLabel;html=1;align=center;verticalAlign=middle;resizable=0;points=[];" parent="MNY0G93UUQZCKlCEBIov-58" vertex="1" connectable="0">
          <mxGeometry x="-0.024" y="-1" relative="1" as="geometry">
            <mxPoint as="offset" />
          </mxGeometry>
        </mxCell>
        <mxCell id="MNY0G93UUQZCKlCEBIov-61" style="edgeStyle=orthogonalEdgeStyle;rounded=0;orthogonalLoop=1;jettySize=auto;html=1;" parent="1" source="MNY0G93UUQZCKlCEBIov-55" target="MNY0G93UUQZCKlCEBIov-57" edge="1">
          <mxGeometry relative="1" as="geometry" />
        </mxCell>
        <mxCell id="MNY0G93UUQZCKlCEBIov-63" value="" style="endArrow=classic;html=1;rounded=0;exitX=0.5;exitY=1;exitDx=0;exitDy=0;entryX=0.5;entryY=0;entryDx=0;entryDy=0;" parent="1" source="MNY0G93UUQZCKlCEBIov-57" target="MNY0G93UUQZCKlCEBIov-51" edge="1">
          <mxGeometry width="50" height="50" relative="1" as="geometry">
            <mxPoint x="680" y="1390" as="sourcePoint" />
            <mxPoint x="730" y="1340" as="targetPoint" />
            <Array as="points">
              <mxPoint x="1175" y="1240" />
              <mxPoint x="440" y="1240" />
            </Array>
          </mxGeometry>
        </mxCell>
        <mxCell id="MNY0G93UUQZCKlCEBIov-65" style="edgeStyle=orthogonalEdgeStyle;rounded=0;orthogonalLoop=1;jettySize=auto;html=1;entryX=0;entryY=0.5;entryDx=0;entryDy=0;" parent="1" source="MNY0G93UUQZCKlCEBIov-51" target="MNY0G93UUQZCKlCEBIov-64" edge="1">
          <mxGeometry relative="1" as="geometry" />
        </mxCell>
        <mxCell id="MNY0G93UUQZCKlCEBIov-87" value="" style="endArrow=classic;html=1;rounded=0;exitX=1;exitY=0.5;exitDx=0;exitDy=0;entryX=0;entryY=0.5;entryDx=0;entryDy=0;" parent="1" source="MNY0G93UUQZCKlCEBIov-81" target="MNY0G93UUQZCKlCEBIov-85" edge="1">
          <mxGeometry width="50" height="50" relative="1" as="geometry">
            <mxPoint x="620" y="1790" as="sourcePoint" />
            <mxPoint x="670" y="1740" as="targetPoint" />
          </mxGeometry>
        </mxCell>
        <mxCell id="MNY0G93UUQZCKlCEBIov-107" style="edgeStyle=orthogonalEdgeStyle;rounded=0;orthogonalLoop=1;jettySize=auto;html=1;exitX=0;exitY=0.5;exitDx=0;exitDy=0;entryX=1;entryY=0.5;entryDx=0;entryDy=0;" parent="1" source="MNY0G93UUQZCKlCEBIov-89" target="MNY0G93UUQZCKlCEBIov-91" edge="1">
          <mxGeometry relative="1" as="geometry" />
        </mxCell>
        <mxCell id="MNY0G93UUQZCKlCEBIov-108" value="No" style="edgeLabel;html=1;align=center;verticalAlign=middle;resizable=0;points=[];" parent="MNY0G93UUQZCKlCEBIov-107" vertex="1" connectable="0">
          <mxGeometry x="-0.716" y="6" relative="1" as="geometry">
            <mxPoint x="68" y="-16" as="offset" />
          </mxGeometry>
        </mxCell>
        <mxCell id="MNY0G93UUQZCKlCEBIov-110" style="edgeStyle=orthogonalEdgeStyle;rounded=0;orthogonalLoop=1;jettySize=auto;html=1;exitX=0.5;exitY=1;exitDx=0;exitDy=0;entryX=1;entryY=0.5;entryDx=0;entryDy=0;" parent="1" source="MNY0G93UUQZCKlCEBIov-75" target="MNY0G93UUQZCKlCEBIov-74" edge="1">
          <mxGeometry relative="1" as="geometry" />
        </mxCell>
        <mxCell id="MNY0G93UUQZCKlCEBIov-111" style="edgeStyle=orthogonalEdgeStyle;rounded=0;orthogonalLoop=1;jettySize=auto;html=1;exitX=1;exitY=0.5;exitDx=0;exitDy=0;entryX=0;entryY=0.5;entryDx=0;entryDy=0;" parent="1" source="MNY0G93UUQZCKlCEBIov-64" target="MNY0G93UUQZCKlCEBIov-75" edge="1">
          <mxGeometry relative="1" as="geometry" />
        </mxCell>
        <mxCell id="MNY0G93UUQZCKlCEBIov-114" style="edgeStyle=orthogonalEdgeStyle;rounded=0;orthogonalLoop=1;jettySize=auto;html=1;exitX=0.5;exitY=1;exitDx=0;exitDy=0;entryX=1;entryY=0.5;entryDx=0;entryDy=0;" parent="1" source="MNY0G93UUQZCKlCEBIov-89" target="MNY0G93UUQZCKlCEBIov-113" edge="1">
          <mxGeometry relative="1" as="geometry" />
        </mxCell>
        <mxCell id="MNY0G93UUQZCKlCEBIov-115" value="Yes" style="edgeLabel;html=1;align=center;verticalAlign=middle;resizable=0;points=[];" parent="MNY0G93UUQZCKlCEBIov-114" vertex="1" connectable="0">
          <mxGeometry x="-0.9097" y="2" relative="1" as="geometry">
            <mxPoint as="offset" />
          </mxGeometry>
        </mxCell>
        <mxCell id="C8Zunma8ayT8bwuVkPhB-2" style="edgeStyle=orthogonalEdgeStyle;rounded=0;orthogonalLoop=1;jettySize=auto;html=1;exitX=0;exitY=0.5;exitDx=0;exitDy=0;entryX=1;entryY=0.5;entryDx=0;entryDy=0;" parent="1" source="MNY0G93UUQZCKlCEBIov-77" target="MNY0G93UUQZCKlCEBIov-79" edge="1">
          <mxGeometry relative="1" as="geometry" />
        </mxCell>
        <mxCell id="C8Zunma8ayT8bwuVkPhB-3" value="Yes" style="edgeLabel;html=1;align=center;verticalAlign=middle;resizable=0;points=[];" parent="C8Zunma8ayT8bwuVkPhB-2" vertex="1" connectable="0">
          <mxGeometry x="0.1122" y="2" relative="1" as="geometry">
            <mxPoint x="63" y="-12" as="offset" />
          </mxGeometry>
        </mxCell>
        <mxCell id="RF6s3ryaV3bNUwfVbSeh-4" value="" style="endArrow=classic;html=1;rounded=0;entryX=1.017;entryY=0.617;entryDx=0;entryDy=0;entryPerimeter=0;exitX=0.5;exitY=1;exitDx=0;exitDy=0;" edge="1" parent="1" source="C8Zunma8ayT8bwuVkPhB-5" target="C8Zunma8ayT8bwuVkPhB-8">
          <mxGeometry width="50" height="50" relative="1" as="geometry">
            <mxPoint x="640" y="2410" as="sourcePoint" />
            <mxPoint x="750" y="2290" as="targetPoint" />
            <Array as="points">
              <mxPoint x="640" y="2600" />
            </Array>
          </mxGeometry>
        </mxCell>
        <mxCell id="RF6s3ryaV3bNUwfVbSeh-12" value="" style="endArrow=classic;html=1;rounded=0;exitX=1;exitY=0.5;exitDx=0;exitDy=0;entryX=0;entryY=0.5;entryDx=0;entryDy=0;" edge="1" parent="1" source="RF6s3ryaV3bNUwfVbSeh-5" target="RF6s3ryaV3bNUwfVbSeh-11">
          <mxGeometry width="50" height="50" relative="1" as="geometry">
            <mxPoint x="700" y="2590" as="sourcePoint" />
            <mxPoint x="750" y="2540" as="targetPoint" />
          </mxGeometry>
        </mxCell>
        <mxCell id="RF6s3ryaV3bNUwfVbSeh-13" style="edgeStyle=orthogonalEdgeStyle;rounded=0;orthogonalLoop=1;jettySize=auto;html=1;entryX=0;entryY=0.5;entryDx=0;entryDy=0;" edge="1" parent="1" source="RF6s3ryaV3bNUwfVbSeh-11" target="RF6s3ryaV3bNUwfVbSeh-6">
          <mxGeometry relative="1" as="geometry" />
        </mxCell>
        <mxCell id="RF6s3ryaV3bNUwfVbSeh-15" value="User Health&#39;s Info and Location" style="edgeLabel;html=1;align=center;verticalAlign=middle;resizable=0;points=[];" vertex="1" connectable="0" parent="RF6s3ryaV3bNUwfVbSeh-13">
          <mxGeometry x="-0.1118" relative="1" as="geometry">
            <mxPoint as="offset" />
          </mxGeometry>
        </mxCell>
        <mxCell id="RF6s3ryaV3bNUwfVbSeh-18" value="" style="endArrow=classic;html=1;rounded=0;entryX=1;entryY=0.5;entryDx=0;entryDy=0;exitX=0.5;exitY=1;exitDx=0;exitDy=0;" edge="1" parent="1" source="RF6s3ryaV3bNUwfVbSeh-6" target="RF6s3ryaV3bNUwfVbSeh-17">
          <mxGeometry width="50" height="50" relative="1" as="geometry">
            <mxPoint x="700" y="2650" as="sourcePoint" />
            <mxPoint x="750" y="2600" as="targetPoint" />
            <Array as="points">
              <mxPoint x="900" y="2810" />
            </Array>
          </mxGeometry>
        </mxCell>
        <mxCell id="RF6s3ryaV3bNUwfVbSeh-19" value="" style="endArrow=classic;html=1;rounded=0;entryX=1;entryY=0.5;entryDx=0;entryDy=0;" edge="1" parent="1" target="C8Zunma8ayT8bwuVkPhB-6">
          <mxGeometry width="50" height="50" relative="1" as="geometry">
            <mxPoint x="640" y="2400" as="sourcePoint" />
            <mxPoint x="750" y="2290" as="targetPoint" />
          </mxGeometry>
        </mxCell>
      </root>
    </mxGraphModel>
  </diagram>
</mxfile>
